<?xml version="1.0" encoding="utf-8"?>
<!-- Generator: Adobe Illustrator 19.2.1, SVG Export Plug-In . SVG Version: 6.00 Build 0)  -->
<svg version="1.1" xmlns="http://www.w3.org/2000/svg" xmlns:xlink="http://www.w3.org/1999/xlink" x="0px" y="0px"
	 viewBox="0 0 23.5 23.5" style="enable-background:new 0 0 23.5 23.5;" xml:space="preserve">
<style type="text/css">
	.st0{fill:#414141;}
</style>
<g>
	<path class="st0" d="M21.2,0H2.4C1.1,0,0,1.1,0,2.4v18.8c0,1.3,1.1,2.4,2.4,2.4h18.8c1.3,0,2.4-1.1,2.4-2.4V2.4
		C23.5,1.1,22.5,0,21.2,0z M19.6,15c0,0.8-0.2,1.4-0.4,1.9c-0.2,0.5-0.5,1-0.9,1.4s-0.9,0.7-1.4,0.9c-0.5,0.2-1.1,0.3-1.9,0.4
		c-0.8,0-1.1,0-3.3,0s-2.4,0-3.3,0c-0.8,0-1.4-0.2-1.9-0.4c-0.5-0.2-1-0.5-1.4-0.9s-0.7-0.9-0.9-1.4c-0.2-0.5-0.3-1.1-0.4-1.9
		c0-0.8,0-1.1,0-3.3s0-2.4,0-3.3c0-0.8,0.2-1.4,0.4-1.9c0.2-0.5,0.5-1,0.9-1.4s0.9-0.7,1.4-0.9c0.5-0.2,1.1-0.3,1.9-0.4
		c0.8,0,1.1,0,3.3,0s2.4,0,3.3,0c0.8,0,1.4,0.2,1.9,0.4c0.5,0.2,1,0.5,1.4,0.9s0.7,0.9,0.9,1.4c0.2,0.5,0.3,1.1,0.4,1.9
		c0,0.8,0,1.1,0,3.3S19.6,14.2,19.6,15z"/>
	<path class="st0" d="M17.9,7.1c-0.1-0.4-0.3-0.6-0.6-0.9s-0.5-0.4-0.9-0.6c-0.3-0.1-0.7-0.2-1.5-0.3c-0.8,0-1.1,0-3.2,0
		s-2.4,0-3.2,0c-0.8,0-1.2,0.2-1.5,0.3C6.7,5.7,6.5,5.9,6.2,6.2S5.7,6.7,5.6,7.1C5.5,7.4,5.4,7.8,5.3,8.6c0,0.8,0,1.1,0,3.2
		s0,2.4,0,3.2c0,0.8,0.2,1.2,0.3,1.5c0.1,0.4,0.3,0.6,0.6,0.9s0.5,0.4,0.9,0.6c0.3,0.1,0.7,0.2,1.5,0.3c0.8,0,1.1,0,3.2,0
		s2.4,0,3.2,0c0.8,0,1.2-0.2,1.5-0.3c0.4-0.1,0.6-0.3,0.9-0.6s0.4-0.5,0.6-0.9c0.1-0.3,0.2-0.7,0.3-1.5c0-0.8,0-1.1,0-3.2
		s0-2.4,0-3.2C18.1,7.8,18,7.4,17.9,7.1z M11.8,15.8c-2.2,0-4.1-1.8-4.1-4.1s1.8-4.1,4.1-4.1s4.1,1.8,4.1,4.1S14,15.8,11.8,15.8z
		 M16,8.5c-0.5,0-0.9-0.4-0.9-0.9C15,7,15.4,6.6,16,6.6c0.5,0,0.9,0.4,0.9,0.9C16.9,8.1,16.5,8.5,16,8.5z"/>
	<circle class="st0" cx="11.8" cy="11.8" r="2.6"/>
</g>
</svg>
